<?xml version="1.0" encoding="UTF-8" standalone="no"?>
<!DOCTYPE svg PUBLIC "-//W3C//DTD SVG 1.1//EN"
 "http://www.w3.org/Graphics/SVG/1.1/DTD/svg11.dtd">
<!-- Generated by graphviz version 2.40.1 (20161225.0304)
 -->
<!-- Title: Graph Legend Pages: 1 -->
<svg width="502pt" height="159pt"
 viewBox="0.00 0.00 502.00 159.00" xmlns="http://www.w3.org/2000/svg" xmlns:xlink="http://www.w3.org/1999/xlink">
<g id="graph0" class="graph" transform="scale(1 1) rotate(0) translate(4 155)">
<title>Graph Legend</title>
<!-- Node9 -->
<g id="node1" class="node">
<title>Node9</title>
<polygon fill="#bfbfbf" stroke="#000000" points="284.5,-19 230.5,-19 230.5,0 284.5,0 284.5,-19"/>
<text text-anchor="middle" x="257.5" y="-7" font-family="Avenir" font-size="10.00" fill="#000000">Inherited</text>
</g>
<!-- Node10 -->
<g id="node2" class="node">
<title>Node10</title>
<g id="a_node2"><a xlink:href="$classPublicBase.xhtml" xlink:title="PublicBase">
<polygon fill="none" stroke="#000000" points="63,-85 0,-85 0,-66 63,-66 63,-85"/>
<text text-anchor="middle" x="31.5" y="-73" font-family="Avenir" font-size="10.00" fill="#000000">PublicBase</text>
</a>
</g>
</g>
<!-- Node10&#45;&gt;Node9 -->
<g id="edge1" class="edge">
<title>Node10&#45;&gt;Node9</title>
<path fill="none" stroke="#191970" d="M73.0355,-63.3702C118.8632,-49.9868 191.288,-28.8363 230.3593,-17.426"/>
<polygon fill="#191970" stroke="#191970" points="72.0188,-60.0208 63.4009,-66.1838 73.9812,-66.7401 72.0188,-60.0208"/>
</g>
<!-- Node11 -->
<g id="node3" class="node">
<title>Node11</title>
<g id="a_node3"><a xlink:href="$classTruncated.xhtml" xlink:title="Truncated">
<polygon fill="none" stroke="#ff0000" points="61,-151 2,-151 2,-132 61,-132 61,-151"/>
<text text-anchor="middle" x="31.5" y="-139" font-family="Avenir" font-size="10.00" fill="#000000">Truncated</text>
</a>
</g>
</g>
<!-- Node11&#45;&gt;Node10 -->
<g id="edge2" class="edge">
<title>Node11&#45;&gt;Node10</title>
<path fill="none" stroke="#191970" d="M31.5,-121.732C31.5,-109.6966 31.5,-94.847 31.5,-85.2785"/>
<polygon fill="#191970" stroke="#191970" points="28.0001,-121.7614 31.5,-131.7615 35.0001,-121.7615 28.0001,-121.7614"/>
</g>
<!-- Node13 -->
<g id="node4" class="node">
<title>Node13</title>
<g id="a_node4"><a xlink:href="$classProtectedBase.xhtml" xlink:title="ProtectedBase">
<polygon fill="none" stroke="#000000" points="160,-85 81,-85 81,-66 160,-66 160,-85"/>
<text text-anchor="middle" x="120.5" y="-73" font-family="Avenir" font-size="10.00" fill="#000000">ProtectedBase</text>
</a>
</g>
</g>
<!-- Node13&#45;&gt;Node9 -->
<g id="edge3" class="edge">
<title>Node13&#45;&gt;Node9</title>
<path fill="none" stroke="#006400" d="M149.5826,-61.4894C176.0474,-48.7399 214.4111,-30.2581 237.555,-19.1085"/>
<polygon fill="#006400" stroke="#006400" points="147.911,-58.4097 140.421,-65.903 150.9491,-64.716 147.911,-58.4097"/>
</g>
<!-- Node14 -->
<g id="node5" class="node">
<title>Node14</title>
<g id="a_node5"><a xlink:href="$classPrivateBase.xhtml" xlink:title="PrivateBase">
<polygon fill="none" stroke="#000000" points="244.5,-85 178.5,-85 178.5,-66 244.5,-66 244.5,-85"/>
<text text-anchor="middle" x="211.5" y="-73" font-family="Avenir" font-size="10.00" fill="#000000">PrivateBase</text>
</a>
</g>
</g>
<!-- Node14&#45;&gt;Node9 -->
<g id="edge4" class="edge">
<title>Node14&#45;&gt;Node9</title>
<path fill="none" stroke="#8b1a1a" d="M224.0099,-57.5511C232.6003,-45.2256 243.6755,-29.3352 250.6847,-19.2785"/>
<polygon fill="#8b1a1a" stroke="#8b1a1a" points="221.134,-55.5562 218.2875,-65.7615 226.8768,-59.5588 221.134,-55.5562"/>
</g>
<!-- Node15 -->
<g id="node6" class="node">
<title>Node15</title>
<polygon fill="none" stroke="#bfbfbf" points="346,-85 263,-85 263,-66 346,-66 346,-85"/>
<text text-anchor="middle" x="304.5" y="-73" font-family="Avenir" font-size="10.00" fill="#000000">Undocumented</text>
</g>
<!-- Node15&#45;&gt;Node9 -->
<g id="edge5" class="edge">
<title>Node15&#45;&gt;Node9</title>
<path fill="none" stroke="#191970" d="M291.7182,-57.5511C282.941,-45.2256 271.625,-29.3352 264.4635,-19.2785"/>
<polygon fill="#191970" stroke="#191970" points="288.9133,-59.646 297.565,-65.7615 294.6152,-55.5855 288.9133,-59.646"/>
</g>
<!-- Node16 -->
<g id="node7" class="node">
<title>Node16</title>
<g id="a_node7"><a xlink:href="$classTempl.xhtml" xlink:title="Templ&lt; int &gt;">
<polygon fill="none" stroke="#000000" points="437,-85 364,-85 364,-66 437,-66 437,-85"/>
<text text-anchor="middle" x="400.5" y="-73" font-family="Avenir" font-size="10.00" fill="#000000">Templ&lt; int &gt;</text>
</a>
</g>
</g>
<!-- Node16&#45;&gt;Node9 -->
<g id="edge6" class="edge">
<title>Node16&#45;&gt;Node9</title>
<path fill="none" stroke="#191970" d="M370.5065,-61.6568C342.8714,-48.9022 302.5819,-30.3071 278.3185,-19.1085"/>
<polygon fill="#191970" stroke="#191970" points="369.1602,-64.8903 379.7066,-65.903 372.0937,-58.5345 369.1602,-64.8903"/>
</g>
<!-- Node17 -->
<g id="node8" class="node">
<title>Node17</title>
<g id="a_node8"><a xlink:href="$classTempl.xhtml" xlink:title="Templ&lt; T &gt;">
<polygon fill="none" stroke="#000000" points="434.5,-151 366.5,-151 366.5,-132 434.5,-132 434.5,-151"/>
<text text-anchor="middle" x="400.5" y="-139" font-family="Avenir" font-size="10.00" fill="#000000">Templ&lt; T &gt;</text>
</a>
</g>
</g>
<!-- Node17&#45;&gt;Node16 -->
<g id="edge7" class="edge">
<title>Node17&#45;&gt;Node16</title>
<path fill="none" stroke="#ffa500" stroke-dasharray="5,2" d="M400.5,-121.732C400.5,-109.6966 400.5,-94.847 400.5,-85.2785"/>
<polygon fill="#ffa500" stroke="#ffa500" points="397.0001,-121.7614 400.5,-131.7615 404.0001,-121.7615 397.0001,-121.7614"/>
<text text-anchor="middle" x="416" y="-106" font-family="Avenir" font-size="10.00" fill="#000000">&lt; int &gt;</text>
</g>
<!-- Node18 -->
<g id="node9" class="node">
<title>Node18</title>
<g id="a_node9"><a xlink:href="$classUsed.xhtml" xlink:title="Used">
<polygon fill="none" stroke="#000000" points="494,-85 455,-85 455,-66 494,-66 494,-85"/>
<text text-anchor="middle" x="474.5" y="-73" font-family="Avenir" font-size="10.00" fill="#000000">Used</text>
</a>
</g>
</g>
<!-- Node18&#45;&gt;Node9 -->
<g id="edge8" class="edge">
<title>Node18&#45;&gt;Node9</title>
<path fill="none" stroke="#9a32cd" stroke-dasharray="5,2" d="M445.2888,-65.6861C382.5288,-45.7668 319.4826,-27.3281 284.5119,-17.2376"/>
<polygon fill="#9a32cd" stroke="#9a32cd" points="444.3574,-69.0627 454.948,-68.7645 446.483,-62.3932 444.3574,-69.0627"/>
<text text-anchor="middle" x="412.5" y="-40" font-family="Avenir" font-size="10.00" fill="#000000">m_usedClass</text>
</g>
</g>
</svg>
