<?xml version="1.0" encoding="UTF-8" standalone="no"?>
<!DOCTYPE svg PUBLIC "-//W3C//DTD SVG 1.1//EN"
 "http://www.w3.org/Graphics/SVG/1.1/DTD/svg11.dtd">
<!-- Generated by graphviz version 2.40.1 (20161225.0304)
 -->
<!-- Title: lib/internal.h Pages: 1 -->
<svg width="500pt" height="84pt"
 viewBox="0.00 0.00 500.00 84.00" xmlns="http://www.w3.org/2000/svg" xmlns:xlink="http://www.w3.org/1999/xlink">
<g id="graph0" class="graph" transform="scale(1 1) rotate(0) translate(4 80)">
<title>lib/internal.h</title>
<!-- Node0 -->
<g id="node1" class="node">
<title>Node0</title>
<polygon fill="#bfbfbf" stroke="#000000" points="210.5,-56.5 210.5,-75.5 281.5,-75.5 281.5,-56.5 210.5,-56.5"/>
<text text-anchor="middle" x="246" y="-63.5" font-family="Avenir" font-size="10.00" fill="#000000">lib/internal.h</text>
</g>
<!-- Node1 -->
<g id="node2" class="node">
<title>Node1</title>
<g id="a_node2"><a xlink:href="libpreopen_8c.xhtml" target="_top" xlink:title="Implementation of high&#45;level libpreopen functions. ">
<polygon fill="none" stroke="#000000" points="0,-.5 0,-19.5 86,-19.5 86,-.5 0,-.5"/>
<text text-anchor="middle" x="43" y="-7.5" font-family="Avenir" font-size="10.00" fill="#000000">lib/libpreopen.c</text>
</a>
</g>
</g>
<!-- Node0&#45;&gt;Node1 -->
<g id="edge1" class="edge">
<title>Node0&#45;&gt;Node1</title>
<path fill="none" stroke="#191970" d="M201.0073,-53.5882C163.7109,-43.2996 111.4744,-28.8895 77.4416,-19.5011"/>
<polygon fill="#191970" stroke="#191970" points="200.5324,-57.0879 211.1031,-56.3733 202.3939,-50.3399 200.5324,-57.0879"/>
</g>
<!-- Node2 -->
<g id="node3" class="node">
<title>Node2</title>
<g id="a_node3"><a xlink:href="po__err_8c.xhtml" target="_top" xlink:title="Error handling for libpreopen. ">
<polygon fill="none" stroke="#000000" points="104,-.5 104,-19.5 170,-19.5 170,-.5 104,-.5"/>
<text text-anchor="middle" x="137" y="-7.5" font-family="Avenir" font-size="10.00" fill="#000000">lib/po_err.c</text>
</a>
</g>
</g>
<!-- Node0&#45;&gt;Node2 -->
<g id="edge2" class="edge">
<title>Node0&#45;&gt;Node2</title>
<path fill="none" stroke="#191970" d="M217.9658,-51.5971C198.4254,-41.558 172.8908,-28.4393 155.7688,-19.6427"/>
<polygon fill="#191970" stroke="#191970" points="216.5194,-54.7889 227.0136,-56.2455 219.7183,-48.5625 216.5194,-54.7889"/>
</g>
<!-- Node3 -->
<g id="node4" class="node">
<title>Node3</title>
<g id="a_node4"><a xlink:href="po__libc__wrappers_8c.xhtml" target="_top" xlink:title="Wrappers of libc functions that access global variables. ">
<polygon fill="none" stroke="#000000" points="188,-.5 188,-19.5 304,-19.5 304,-.5 188,-.5"/>
<text text-anchor="middle" x="246" y="-7.5" font-family="Avenir" font-size="10.00" fill="#000000">lib/po_libc_wrappers.c</text>
</a>
</g>
</g>
<!-- Node0&#45;&gt;Node3 -->
<g id="edge3" class="edge">
<title>Node0&#45;&gt;Node3</title>
<path fill="none" stroke="#191970" d="M246,-46.1575C246,-37.155 246,-26.9199 246,-19.6427"/>
<polygon fill="#191970" stroke="#191970" points="242.5001,-46.2455 246,-56.2455 249.5001,-46.2456 242.5001,-46.2455"/>
</g>
<!-- Node4 -->
<g id="node5" class="node">
<title>Node4</title>
<g id="a_node5"><a xlink:href="po__map_8c.xhtml" target="_top" xlink:title="Implementation of po_map management functions. ">
<polygon fill="none" stroke="#000000" points="322.5,-.5 322.5,-19.5 397.5,-19.5 397.5,-.5 322.5,-.5"/>
<text text-anchor="middle" x="360" y="-7.5" font-family="Avenir" font-size="10.00" fill="#000000">lib/po_map.c</text>
</a>
</g>
</g>
<!-- Node0&#45;&gt;Node4 -->
<g id="edge4" class="edge">
<title>Node0&#45;&gt;Node4</title>
<path fill="none" stroke="#191970" d="M274.8321,-51.8368C295.4395,-41.7139 322.6082,-28.3679 340.6584,-19.5011"/>
<polygon fill="#191970" stroke="#191970" points="273.0297,-48.8227 265.5973,-56.3733 276.116,-55.1056 273.0297,-48.8227"/>
</g>
<!-- Node5 -->
<g id="node6" class="node">
<title>Node5</title>
<g id="a_node6"><a xlink:href="po__pack_8c.xhtml" target="_top" xlink:title="Code for [in]packing po_map into/from dense shared memory segments. ">
<polygon fill="none" stroke="#000000" points="416,-.5 416,-19.5 492,-19.5 492,-.5 416,-.5"/>
<text text-anchor="middle" x="454" y="-7.5" font-family="Avenir" font-size="10.00" fill="#000000">lib/po_pack.c</text>
</a>
</g>
</g>
<!-- Node0&#45;&gt;Node5 -->
<g id="edge5" class="edge">
<title>Node0&#45;&gt;Node5</title>
<path fill="none" stroke="#191970" d="M291.6118,-53.7199C329.8582,-43.4228 383.69,-28.9296 418.7101,-19.5011"/>
<polygon fill="#191970" stroke="#191970" points="290.5027,-50.3938 281.7565,-56.3733 292.3226,-57.1531 290.5027,-50.3938"/>
</g>
</g>
</svg>
