<?xml version="1.0" encoding="UTF-8" standalone="no"?>
<!DOCTYPE svg PUBLIC "-//W3C//DTD SVG 1.1//EN"
 "http://www.w3.org/Graphics/SVG/1.1/DTD/svg11.dtd">
<!-- Generated by graphviz version 2.40.1 (20161225.0304)
 -->
<!-- Title: po_find Pages: 1 -->
<svg width="198pt" height="66pt"
 viewBox="0.00 0.00 198.00 66.00" xmlns="http://www.w3.org/2000/svg" xmlns:xlink="http://www.w3.org/1999/xlink">
<g id="graph0" class="graph" transform="scale(1 1) rotate(0) translate(4 62)">
<title>po_find</title>
<!-- Node5 -->
<g id="node1" class="node">
<title>Node5</title>
<polygon fill="#bfbfbf" stroke="#000000" points="0,-19.5 0,-38.5 50,-38.5 50,-19.5 0,-19.5"/>
<text text-anchor="middle" x="25" y="-26.5" font-family="Avenir" font-size="10.00" fill="#000000">po_find</text>
</g>
<!-- Node6 -->
<g id="node2" class="node">
<title>Node6</title>
<g id="a_node2"><a xlink:href="libpreopen_8c.xhtml#af97372bfa72deabe14b2fc325ec0e1a9" target="_top" xlink:title="po_isprefix">
<polygon fill="none" stroke="#000000" points="105.5,-38.5 105.5,-57.5 170.5,-57.5 170.5,-38.5 105.5,-38.5"/>
<text text-anchor="middle" x="138" y="-45.5" font-family="Avenir" font-size="10.00" fill="#000000">po_isprefix</text>
</a>
</g>
</g>
<!-- Node5&#45;&gt;Node6 -->
<g id="edge1" class="edge">
<title>Node5&#45;&gt;Node6</title>
<path fill="none" stroke="#191970" d="M50.0784,-33.2167C63.2857,-35.4374 79.8519,-38.2229 95.0331,-40.7755"/>
<polygon fill="#191970" stroke="#191970" points="94.8216,-44.289 105.2636,-42.4956 95.9824,-37.3859 94.8216,-44.289"/>
</g>
<!-- Node7 -->
<g id="node3" class="node">
<title>Node7</title>
<g id="a_node3"><a xlink:href="po__err_8c.xhtml#a67a367198c38d11149314c86191cdcb8" target="_top" xlink:title="po_map_assertvalid">
<polygon fill="none" stroke="#000000" points="86,-.5 86,-19.5 190,-19.5 190,-.5 86,-.5"/>
<text text-anchor="middle" x="138" y="-7.5" font-family="Avenir" font-size="10.00" fill="#000000">po_map_assertvalid</text>
</a>
</g>
</g>
<!-- Node5&#45;&gt;Node7 -->
<g id="edge2" class="edge">
<title>Node5&#45;&gt;Node7</title>
<path fill="none" stroke="#191970" d="M50.0784,-24.7833C57.8138,-23.4826 66.7015,-21.9882 75.7882,-20.4604"/>
<polygon fill="#191970" stroke="#191970" points="76.4001,-23.9067 85.6813,-18.7969 75.2394,-17.0036 76.4001,-23.9067"/>
</g>
</g>
</svg>
