<?xml version="1.0" encoding="UTF-8" standalone="no"?>
<!DOCTYPE svg PUBLIC "-//W3C//DTD SVG 1.1//EN"
 "http://www.w3.org/Graphics/SVG/1.1/DTD/svg11.dtd">
<!-- Generated by graphviz version 2.40.1 (20161225.0304)
 -->
<!-- Title: po_preopen Pages: 1 -->
<svg width="306pt" height="66pt"
 viewBox="0.00 0.00 306.00 66.00" xmlns="http://www.w3.org/2000/svg" xmlns:xlink="http://www.w3.org/1999/xlink">
<g id="graph0" class="graph" transform="scale(1 1) rotate(0) translate(4 62)">
<title>po_preopen</title>
<!-- Node12 -->
<g id="node1" class="node">
<title>Node12</title>
<polygon fill="#bfbfbf" stroke="#000000" points="0,-19.5 0,-38.5 71,-38.5 71,-19.5 0,-19.5"/>
<text text-anchor="middle" x="35.5" y="-26.5" font-family="Avenir" font-size="10.00" fill="#000000">po_preopen</text>
</g>
<!-- Node13 -->
<g id="node2" class="node">
<title>Node13</title>
<g id="a_node2"><a xlink:href="libpreopen_8c.xhtml#aab64d62d21b4ae69326ab732ea859aca" target="_top" xlink:title="Add an already&#45;opened directory to a po_map. ">
<polygon fill="none" stroke="#000000" points="107,-.5 107,-19.5 158,-19.5 158,-.5 107,-.5"/>
<text text-anchor="middle" x="132.5" y="-7.5" font-family="Avenir" font-size="10.00" fill="#000000">po_add</text>
</a>
</g>
</g>
<!-- Node12&#45;&gt;Node13 -->
<g id="edge1" class="edge">
<title>Node12&#45;&gt;Node13</title>
<path fill="none" stroke="#191970" d="M71.0684,-22.033C79.5253,-20.3765 88.548,-18.6091 97.0018,-16.9533"/>
<polygon fill="#191970" stroke="#191970" points="97.8142,-20.3607 106.9549,-15.0037 96.4686,-13.4913 97.8142,-20.3607"/>
</g>
<!-- Node14 -->
<g id="node3" class="node">
<title>Node14</title>
<g id="a_node3"><a xlink:href="po__err_8c.xhtml#a67a367198c38d11149314c86191cdcb8" target="_top" xlink:title="po_map_assertvalid">
<polygon fill="none" stroke="#000000" points="194,-38.5 194,-57.5 298,-57.5 298,-38.5 194,-38.5"/>
<text text-anchor="middle" x="246" y="-45.5" font-family="Avenir" font-size="10.00" fill="#000000">po_map_assertvalid</text>
</a>
</g>
</g>
<!-- Node12&#45;&gt;Node14 -->
<g id="edge4" class="edge">
<title>Node12&#45;&gt;Node14</title>
<path fill="none" stroke="#191970" d="M71.2085,-32.2231C101.9799,-35.0006 147.106,-39.0737 183.7985,-42.3856"/>
<polygon fill="#191970" stroke="#191970" points="183.6309,-45.8846 193.905,-43.2978 184.2602,-38.913 183.6309,-45.8846"/>
</g>
<!-- Node13&#45;&gt;Node14 -->
<g id="edge2" class="edge">
<title>Node13&#45;&gt;Node14</title>
<path fill="none" stroke="#191970" d="M158.2549,-18.6228C172.879,-23.519 191.4643,-29.7414 207.7621,-35.1979"/>
<polygon fill="#191970" stroke="#191970" points="206.9644,-38.6217 217.5583,-38.4777 209.1868,-31.9839 206.9644,-38.6217"/>
</g>
<!-- Node15 -->
<g id="node4" class="node">
<title>Node15</title>
<g id="a_node4"><a xlink:href="po__map_8c.xhtml#a2a1db96295f5776354b805c388b825d3" target="_top" xlink:title="po_map_enlarge">
<polygon fill="none" stroke="#000000" points="200.5,-.5 200.5,-19.5 291.5,-19.5 291.5,-.5 200.5,-.5"/>
<text text-anchor="middle" x="246" y="-7.5" font-family="Avenir" font-size="10.00" fill="#000000">po_map_enlarge</text>
</a>
</g>
</g>
<!-- Node13&#45;&gt;Node15 -->
<g id="edge3" class="edge">
<title>Node13&#45;&gt;Node15</title>
<path fill="none" stroke="#191970" d="M158.2549,-10C167.7693,-10 178.9603,-10 190.1072,-10"/>
<polygon fill="#191970" stroke="#191970" points="190.2824,-13.5001 200.2824,-10 190.2824,-6.5001 190.2824,-13.5001"/>
</g>
</g>
</svg>
