<?xml version="1.0" encoding="UTF-8" standalone="no"?>
<!DOCTYPE svg PUBLIC "-//W3C//DTD SVG 1.1//EN"
 "http://www.w3.org/Graphics/SVG/1.1/DTD/svg11.dtd">
<!-- Generated by graphviz version 2.40.1 (20161225.0304)
 -->
<!-- Title: po_add Pages: 1 -->
<svg width="199pt" height="66pt"
 viewBox="0.00 0.00 199.00 66.00" xmlns="http://www.w3.org/2000/svg" xmlns:xlink="http://www.w3.org/1999/xlink">
<g id="graph0" class="graph" transform="scale(1 1) rotate(0) translate(4 62)">
<title>po_add</title>
<!-- Node0 -->
<g id="node1" class="node">
<title>Node0</title>
<polygon fill="#bfbfbf" stroke="#000000" points="0,-19.5 0,-38.5 51,-38.5 51,-19.5 0,-19.5"/>
<text text-anchor="middle" x="25.5" y="-26.5" font-family="Avenir" font-size="10.00" fill="#000000">po_add</text>
</g>
<!-- Node1 -->
<g id="node2" class="node">
<title>Node1</title>
<g id="a_node2"><a xlink:href="po__err_8c.xhtml#a67a367198c38d11149314c86191cdcb8" target="_top" xlink:title="po_map_assertvalid">
<polygon fill="none" stroke="#000000" points="87,-38.5 87,-57.5 191,-57.5 191,-38.5 87,-38.5"/>
<text text-anchor="middle" x="139" y="-45.5" font-family="Avenir" font-size="10.00" fill="#000000">po_map_assertvalid</text>
</a>
</g>
</g>
<!-- Node0&#45;&gt;Node1 -->
<g id="edge1" class="edge">
<title>Node0&#45;&gt;Node1</title>
<path fill="none" stroke="#191970" d="M51.2549,-33.3114C59.036,-34.614 67.9386,-36.1043 77.0213,-37.6247"/>
<polygon fill="#191970" stroke="#191970" points="76.4626,-41.0798 86.9032,-39.279 77.6184,-34.1759 76.4626,-41.0798"/>
</g>
<!-- Node2 -->
<g id="node3" class="node">
<title>Node2</title>
<g id="a_node3"><a xlink:href="po__map_8c.xhtml#a2a1db96295f5776354b805c388b825d3" target="_top" xlink:title="po_map_enlarge">
<polygon fill="none" stroke="#000000" points="93.5,-.5 93.5,-19.5 184.5,-19.5 184.5,-.5 93.5,-.5"/>
<text text-anchor="middle" x="139" y="-7.5" font-family="Avenir" font-size="10.00" fill="#000000">po_map_enlarge</text>
</a>
</g>
</g>
<!-- Node0&#45;&gt;Node2 -->
<g id="edge2" class="edge">
<title>Node0&#45;&gt;Node2</title>
<path fill="none" stroke="#191970" d="M51.2549,-24.6886C60.7693,-23.0959 71.9603,-21.2225 83.1072,-19.3565"/>
<polygon fill="#191970" stroke="#191970" points="83.9975,-22.7562 93.2824,-17.6532 82.8418,-15.8523 83.9975,-22.7562"/>
</g>
</g>
</svg>
