<?xml version="1.0" encoding="UTF-8" standalone="no"?>
<!DOCTYPE svg PUBLIC "-//W3C//DTD SVG 1.1//EN"
 "http://www.w3.org/Graphics/SVG/1.1/DTD/svg11.dtd">
<!-- Generated by graphviz version 2.40.1 (20161225.0304)
 -->
<!-- Title: po_unpack Pages: 1 -->
<svg width="213pt" height="104pt"
 viewBox="0.00 0.00 213.00 104.00" xmlns="http://www.w3.org/2000/svg" xmlns:xlink="http://www.w3.org/1999/xlink">
<g id="graph0" class="graph" transform="scale(1 1) rotate(0) translate(4 100)">
<title>po_unpack</title>
<!-- Node34 -->
<g id="node1" class="node">
<title>Node34</title>
<polygon fill="#bfbfbf" stroke="#000000" points="0,-38.5 0,-57.5 65,-57.5 65,-38.5 0,-38.5"/>
<text text-anchor="middle" x="32.5" y="-45.5" font-family="Avenir" font-size="10.00" fill="#000000">po_unpack</text>
</g>
<!-- Node35 -->
<g id="node2" class="node">
<title>Node35</title>
<g id="a_node2"><a xlink:href="po__err_8c.xhtml#a2579611c2cf8960421fbef392fd159bf" target="_top" xlink:title="po_errormessage">
<polygon fill="none" stroke="#000000" points="106.5,-76.5 106.5,-95.5 199.5,-95.5 199.5,-76.5 106.5,-76.5"/>
<text text-anchor="middle" x="153" y="-83.5" font-family="Avenir" font-size="10.00" fill="#000000">po_errormessage</text>
</a>
</g>
</g>
<!-- Node34&#45;&gt;Node35 -->
<g id="edge1" class="edge">
<title>Node34&#45;&gt;Node35</title>
<path fill="none" stroke="#191970" d="M62.9072,-57.589C78.0345,-62.3594 96.5196,-68.1888 112.8002,-73.3229"/>
<polygon fill="#191970" stroke="#191970" points="112.0128,-76.7444 122.6025,-76.4141 114.1181,-70.0685 112.0128,-76.7444"/>
</g>
<!-- Node36 -->
<g id="node3" class="node">
<title>Node36</title>
<g id="a_node3"><a xlink:href="po__err_8c.xhtml#a67a367198c38d11149314c86191cdcb8" target="_top" xlink:title="po_map_assertvalid">
<polygon fill="none" stroke="#000000" points="101,-38.5 101,-57.5 205,-57.5 205,-38.5 101,-38.5"/>
<text text-anchor="middle" x="153" y="-45.5" font-family="Avenir" font-size="10.00" fill="#000000">po_map_assertvalid</text>
</a>
</g>
</g>
<!-- Node34&#45;&gt;Node36 -->
<g id="edge2" class="edge">
<title>Node34&#45;&gt;Node36</title>
<path fill="none" stroke="#191970" d="M65.109,-48C73.1104,-48 81.9422,-48 90.8297,-48"/>
<polygon fill="#191970" stroke="#191970" points="90.8464,-51.5001 100.8464,-48 90.8464,-44.5001 90.8464,-51.5001"/>
</g>
<!-- Node37 -->
<g id="node4" class="node">
<title>Node37</title>
<g id="a_node4"><a xlink:href="po__libc__wrappers_8c.xhtml#a8c608fe4dce7b9f98d38263bd30bef56" target="_top" xlink:title="Capability&#45;safe wrapper around the stat(2) system call. ">
<polygon fill="none" stroke="#000000" points="137,-.5 137,-19.5 169,-19.5 169,-.5 137,-.5"/>
<text text-anchor="middle" x="153" y="-7.5" font-family="Avenir" font-size="10.00" fill="#000000">stat</text>
</a>
</g>
</g>
<!-- Node34&#45;&gt;Node37 -->
<g id="edge3" class="edge">
<title>Node34&#45;&gt;Node37</title>
<path fill="none" stroke="#191970" d="M62.9072,-38.411C82.6731,-32.1778 108.1719,-24.1367 126.9947,-18.2008"/>
<polygon fill="#191970" stroke="#191970" points="128.2018,-21.4902 136.6862,-15.1446 126.0965,-14.8142 128.2018,-21.4902"/>
</g>
</g>
</svg>
