<?xml version="1.0" encoding="UTF-8" standalone="no"?>
<!DOCTYPE svg PUBLIC "-//W3C//DTD SVG 1.1//EN"
 "http://www.w3.org/Graphics/SVG/1.1/DTD/svg11.dtd">
<!-- Generated by graphviz version 2.40.1 (20161225.0304)
 -->
<!-- Title: po_map_enlarge Pages: 1 -->
<svg width="293pt" height="28pt"
 viewBox="0.00 0.00 293.00 28.00" xmlns="http://www.w3.org/2000/svg" xmlns:xlink="http://www.w3.org/1999/xlink">
<g id="graph0" class="graph" transform="scale(1 1) rotate(0) translate(4 24)">
<title>po_map_enlarge</title>
<!-- Node4 -->
<g id="node1" class="node">
<title>Node4</title>
<polygon fill="#bfbfbf" stroke="#000000" points="0,-.5 0,-19.5 91,-19.5 91,-.5 0,-.5"/>
<text text-anchor="middle" x="45.5" y="-7.5" font-family="Avenir" font-size="10.00" fill="#000000">po_map_enlarge</text>
</g>
<!-- Node5 -->
<g id="node2" class="node">
<title>Node5</title>
<g id="a_node2"><a xlink:href="libpreopen_8c.xhtml#aab64d62d21b4ae69326ab732ea859aca" target="_top" xlink:title="Add an already&#45;opened directory to a po_map. ">
<polygon fill="none" stroke="#000000" points="127,-.5 127,-19.5 178,-19.5 178,-.5 127,-.5"/>
<text text-anchor="middle" x="152.5" y="-7.5" font-family="Avenir" font-size="10.00" fill="#000000">po_add</text>
</a>
</g>
</g>
<!-- Node4&#45;&gt;Node5 -->
<g id="edge1" class="edge">
<title>Node4&#45;&gt;Node5</title>
<path fill="none" stroke="#191970" d="M101.2298,-10C110.1397,-10 118.9669,-10 126.7208,-10"/>
<polygon fill="#191970" stroke="#191970" points="101.188,-6.5001 91.188,-10 101.188,-13.5001 101.188,-6.5001"/>
</g>
<!-- Node6 -->
<g id="node3" class="node">
<title>Node6</title>
<g id="a_node3"><a xlink:href="libpreopen_8c.xhtml#a1edc9d3bb87b703c9b1db9d199d0947b" target="_top" xlink:title="Pre&#45;open a path and store it in a po_map for later use. ">
<polygon fill="none" stroke="#000000" points="214,-.5 214,-19.5 285,-19.5 285,-.5 214,-.5"/>
<text text-anchor="middle" x="249.5" y="-7.5" font-family="Avenir" font-size="10.00" fill="#000000">po_preopen</text>
</a>
</g>
</g>
<!-- Node5&#45;&gt;Node6 -->
<g id="edge2" class="edge">
<title>Node5&#45;&gt;Node6</title>
<path fill="none" stroke="#191970" d="M188.3804,-10C196.6729,-10 205.4944,-10 213.78,-10"/>
<polygon fill="#191970" stroke="#191970" points="188.2396,-6.5001 178.2396,-10 188.2395,-13.5001 188.2396,-6.5001"/>
</g>
</g>
</svg>
