<?xml version="1.0" encoding="UTF-8" standalone="no"?>
<!DOCTYPE svg PUBLIC "-//W3C//DTD SVG 1.1//EN"
 "http://www.w3.org/Graphics/SVG/1.1/DTD/svg11.dtd">
<!-- Generated by graphviz version 2.40.1 (20161225.0304)
 -->
<!-- Title: po_pack Pages: 1 -->
<svg width="202pt" height="66pt"
 viewBox="0.00 0.00 202.00 66.00" xmlns="http://www.w3.org/2000/svg" xmlns:xlink="http://www.w3.org/1999/xlink">
<g id="graph0" class="graph" transform="scale(1 1) rotate(0) translate(4 62)">
<title>po_pack</title>
<!-- Node0 -->
<g id="node1" class="node">
<title>Node0</title>
<polygon fill="#bfbfbf" stroke="#000000" points="0,-19.5 0,-38.5 54,-38.5 54,-19.5 0,-19.5"/>
<text text-anchor="middle" x="27" y="-26.5" font-family="Avenir" font-size="10.00" fill="#000000">po_pack</text>
</g>
<!-- Node1 -->
<g id="node2" class="node">
<title>Node1</title>
<g id="a_node2"><a xlink:href="po__err_8c.xhtml#a2579611c2cf8960421fbef392fd159bf" target="_top" xlink:title="po_errormessage">
<polygon fill="none" stroke="#000000" points="95.5,-38.5 95.5,-57.5 188.5,-57.5 188.5,-38.5 95.5,-38.5"/>
<text text-anchor="middle" x="142" y="-45.5" font-family="Avenir" font-size="10.00" fill="#000000">po_errormessage</text>
</a>
</g>
</g>
<!-- Node0&#45;&gt;Node1 -->
<g id="edge1" class="edge">
<title>Node0&#45;&gt;Node1</title>
<path fill="none" stroke="#191970" d="M54.2534,-33.5027C63.6103,-35.0487 74.4611,-36.8414 85.2753,-38.6281"/>
<polygon fill="#191970" stroke="#191970" points="84.7157,-42.083 95.1525,-40.26 85.8568,-35.1766 84.7157,-42.083"/>
</g>
<!-- Node2 -->
<g id="node3" class="node">
<title>Node2</title>
<g id="a_node3"><a xlink:href="po__err_8c.xhtml#a67a367198c38d11149314c86191cdcb8" target="_top" xlink:title="po_map_assertvalid">
<polygon fill="none" stroke="#000000" points="90,-.5 90,-19.5 194,-19.5 194,-.5 90,-.5"/>
<text text-anchor="middle" x="142" y="-7.5" font-family="Avenir" font-size="10.00" fill="#000000">po_map_assertvalid</text>
</a>
</g>
</g>
<!-- Node0&#45;&gt;Node2 -->
<g id="edge2" class="edge">
<title>Node0&#45;&gt;Node2</title>
<path fill="none" stroke="#191970" d="M54.2534,-24.4973C61.9747,-23.2216 70.7133,-21.7778 79.6091,-20.3081"/>
<polygon fill="#191970" stroke="#191970" points="80.3781,-23.7285 89.6738,-18.6452 79.237,-16.8222 80.3781,-23.7285"/>
</g>
</g>
</svg>
