<?xml version="1.0" encoding="UTF-8" standalone="no"?>
<!DOCTYPE svg PUBLIC "-//W3C//DTD SVG 1.1//EN"
 "http://www.w3.org/Graphics/SVG/1.1/DTD/svg11.dtd">
<!-- Generated by graphviz version 2.40.1 (20161225.0304)
 -->
<!-- Title: po_map_assertvalid Pages: 1 -->
<svg width="346pt" height="332pt"
 viewBox="0.00 0.00 346.00 332.00" xmlns="http://www.w3.org/2000/svg" xmlns:xlink="http://www.w3.org/1999/xlink">
<g id="graph0" class="graph" transform="scale(1 1) rotate(0) translate(4 328)">
<title>po_map_assertvalid</title>
<!-- Node7 -->
<g id="node1" class="node">
<title>Node7</title>
<polygon fill="#bfbfbf" stroke="#000000" points="0,-152.5 0,-171.5 104,-171.5 104,-152.5 0,-152.5"/>
<text text-anchor="middle" x="52" y="-159.5" font-family="Avenir" font-size="10.00" fill="#000000">po_map_assertvalid</text>
</g>
<!-- Node8 -->
<g id="node2" class="node">
<title>Node8</title>
<g id="a_node2"><a xlink:href="libpreopen_8c.xhtml#aab64d62d21b4ae69326ab732ea859aca" target="_top" xlink:title="Add an already&#45;opened directory to a po_map. ">
<polygon fill="none" stroke="#000000" points="160,-304.5 160,-323.5 211,-323.5 211,-304.5 160,-304.5"/>
<text text-anchor="middle" x="185.5" y="-311.5" font-family="Avenir" font-size="10.00" fill="#000000">po_add</text>
</a>
</g>
</g>
<!-- Node7&#45;&gt;Node8 -->
<g id="edge1" class="edge">
<title>Node7&#45;&gt;Node8</title>
<path fill="none" stroke="#191970" d="M61.0716,-180.6141C74.9574,-207.5622 103.7289,-257.7392 140,-290 146.4063,-295.6979 154.4063,-300.4974 161.9038,-304.271"/>
<polygon fill="#191970" stroke="#191970" points="64.1129,-178.8713 56.494,-171.5091 57.8588,-182.0156 64.1129,-178.8713"/>
</g>
<!-- Node9 -->
<g id="node3" class="node">
<title>Node9</title>
<g id="a_node3"><a xlink:href="libpreopen_8c.xhtml#a1edc9d3bb87b703c9b1db9d199d0947b" target="_top" xlink:title="Pre&#45;open a path and store it in a po_map for later use. ">
<polygon fill="none" stroke="#000000" points="267,-285.5 267,-304.5 338,-304.5 338,-285.5 267,-285.5"/>
<text text-anchor="middle" x="302.5" y="-292.5" font-family="Avenir" font-size="10.00" fill="#000000">po_preopen</text>
</a>
</g>
</g>
<!-- Node7&#45;&gt;Node9 -->
<g id="edge9" class="edge">
<title>Node7&#45;&gt;Node9</title>
<path fill="none" stroke="#191970" d="M63.5393,-179.8836C78.5022,-201.5701 106.6687,-237.6192 140,-257 179.5736,-280.0104 232.1981,-289.0923 266.6894,-292.6736"/>
<polygon fill="#191970" stroke="#191970" points="66.4342,-177.9163 57.9585,-171.5592 60.62,-181.8144 66.4342,-177.9163"/>
</g>
<!-- Node10 -->
<g id="node4" class="node">
<title>Node10</title>
<g id="a_node4"><a xlink:href="libpreopen_8c.xhtml#aa829bced964720cf17c5350c643736da" target="_top" xlink:title="Find a directory whose path is a prefix of path and (on platforms that support Capsicum) that has the...">
<polygon fill="none" stroke="#000000" points="160.5,-228.5 160.5,-247.5 210.5,-247.5 210.5,-228.5 160.5,-228.5"/>
<text text-anchor="middle" x="185.5" y="-235.5" font-family="Avenir" font-size="10.00" fill="#000000">po_find</text>
</a>
</g>
</g>
<!-- Node7&#45;&gt;Node10 -->
<g id="edge3" class="edge">
<title>Node7&#45;&gt;Node10</title>
<path fill="none" stroke="#191970" d="M73.591,-177.5461C91.0119,-189.7014 116.4156,-206.5662 140,-219 146.3609,-222.3535 153.4462,-225.5519 160.0957,-228.3359"/>
<polygon fill="#191970" stroke="#191970" points="75.449,-174.5736 65.2605,-171.6674 71.4129,-180.2929 75.449,-174.5736"/>
</g>
<!-- Node11 -->
<g id="node5" class="node">
<title>Node11</title>
<g id="a_node5"><a xlink:href="po__map_8c.xhtml#a26cc887be5b3bc545b05b6585d633073" target="_top" xlink:title="Create a po_map of at least the specified capacity. ">
<polygon fill="none" stroke="#000000" points="143,-190.5 143,-209.5 228,-209.5 228,-190.5 143,-190.5"/>
<text text-anchor="middle" x="185.5" y="-197.5" font-family="Avenir" font-size="10.00" fill="#000000">po_map_create</text>
</a>
</g>
</g>
<!-- Node7&#45;&gt;Node11 -->
<g id="edge4" class="edge">
<title>Node7&#45;&gt;Node11</title>
<path fill="none" stroke="#191970" d="M95.53,-174.3906C113.8122,-179.5945 134.7492,-185.5541 151.8231,-190.4141"/>
<polygon fill="#191970" stroke="#191970" points="96.2639,-170.9605 85.6877,-171.589 94.3474,-177.6931 96.2639,-170.9605"/>
</g>
<!-- Node12 -->
<g id="node6" class="node">
<title>Node12</title>
<g id="a_node6"><a xlink:href="po__map_8c.xhtml#ac0d04034757942308625dcd397181b1a" target="_top" xlink:title="Iterate over a po_map, invoking a callback for each element in the map. ">
<polygon fill="none" stroke="#000000" points="140,-152.5 140,-171.5 231,-171.5 231,-152.5 140,-152.5"/>
<text text-anchor="middle" x="185.5" y="-159.5" font-family="Avenir" font-size="10.00" fill="#000000">po_map_foreach</text>
</a>
</g>
</g>
<!-- Node7&#45;&gt;Node12 -->
<g id="edge5" class="edge">
<title>Node7&#45;&gt;Node12</title>
<path fill="none" stroke="#191970" d="M114.6328,-162C123.105,-162 131.666,-162 139.767,-162"/>
<polygon fill="#191970" stroke="#191970" points="114.3796,-158.5001 104.3796,-162 114.3795,-165.5001 114.3796,-158.5001"/>
</g>
<!-- Node13 -->
<g id="node7" class="node">
<title>Node13</title>
<g id="a_node7"><a xlink:href="po__map_8c.xhtml#acbfc8725e029326c8e02c6c41d44b4a0" target="_top" xlink:title="Release a reference to a po_map. ">
<polygon fill="none" stroke="#000000" points="141,-114.5 141,-133.5 230,-133.5 230,-114.5 141,-114.5"/>
<text text-anchor="middle" x="185.5" y="-121.5" font-family="Avenir" font-size="10.00" fill="#000000">po_map_release</text>
</a>
</g>
</g>
<!-- Node7&#45;&gt;Node13 -->
<g id="edge6" class="edge">
<title>Node7&#45;&gt;Node13</title>
<path fill="none" stroke="#191970" d="M95.53,-149.6094C113.8122,-144.4055 134.7492,-138.4459 151.8231,-133.5859"/>
<polygon fill="#191970" stroke="#191970" points="94.3474,-146.3069 85.6877,-152.411 96.2639,-153.0395 94.3474,-146.3069"/>
</g>
<!-- Node14 -->
<g id="node8" class="node">
<title>Node14</title>
<g id="a_node8"><a xlink:href="po__libc__wrappers_8c.xhtml#a8d9b3c7a824de9fdcfaab67f2622aaf2" target="_top" xlink:title="Set the default map, taking ownership of its memory allocation(s). ">
<polygon fill="none" stroke="#000000" points="150,-76.5 150,-95.5 221,-95.5 221,-76.5 150,-76.5"/>
<text text-anchor="middle" x="185.5" y="-83.5" font-family="Avenir" font-size="10.00" fill="#000000">po_map_set</text>
</a>
</g>
</g>
<!-- Node7&#45;&gt;Node14 -->
<g id="edge7" class="edge">
<title>Node7&#45;&gt;Node14</title>
<path fill="none" stroke="#191970" d="M73.591,-146.4539C91.0119,-134.2986 116.4156,-117.4338 140,-105 146.3609,-101.6465 153.4462,-98.4481 160.0957,-95.6641"/>
<polygon fill="#191970" stroke="#191970" points="71.4129,-143.7071 65.2605,-152.3326 75.449,-149.4264 71.4129,-143.7071"/>
</g>
<!-- Node15 -->
<g id="node9" class="node">
<title>Node15</title>
<g id="a_node9"><a xlink:href="po__pack_8c.xhtml#afcacfc38f21f677e4794748637a3e1d5" target="_top" xlink:title="Pack a struct po_map into a shared memory segment. ">
<polygon fill="none" stroke="#000000" points="158.5,-38.5 158.5,-57.5 212.5,-57.5 212.5,-38.5 158.5,-38.5"/>
<text text-anchor="middle" x="185.5" y="-45.5" font-family="Avenir" font-size="10.00" fill="#000000">po_pack</text>
</a>
</g>
</g>
<!-- Node7&#45;&gt;Node15 -->
<g id="edge8" class="edge">
<title>Node7&#45;&gt;Node15</title>
<path fill="none" stroke="#191970" d="M64.7915,-144.0759C80.479,-123.1838 108.8509,-88.7522 140,-67 145.4744,-63.1771 151.8368,-59.9199 158.0379,-57.2386"/>
<polygon fill="#191970" stroke="#191970" points="61.7932,-142.2455 58.6925,-152.3765 67.4342,-146.3904 61.7932,-142.2455"/>
</g>
<!-- Node16 -->
<g id="node10" class="node">
<title>Node16</title>
<g id="a_node10"><a xlink:href="po__pack_8c.xhtml#af11d69efff09c02fc3f3b7bfdeccaa1b" target="_top" xlink:title="Unpack a struct po_map from a file. ">
<polygon fill="none" stroke="#000000" points="153,-.5 153,-19.5 218,-19.5 218,-.5 153,-.5"/>
<text text-anchor="middle" x="185.5" y="-7.5" font-family="Avenir" font-size="10.00" fill="#000000">po_unpack</text>
</a>
</g>
</g>
<!-- Node7&#45;&gt;Node16 -->
<g id="edge10" class="edge">
<title>Node7&#45;&gt;Node16</title>
<path fill="none" stroke="#191970" d="M60.1407,-142.9886C73.1677,-114.6025 101.2329,-61.056 140,-29 144.486,-25.2906 149.7992,-22.2112 155.1836,-19.6889"/>
<polygon fill="#191970" stroke="#191970" points="56.8998,-141.6628 56.0297,-152.2218 63.2946,-144.51 56.8998,-141.6628"/>
</g>
<!-- Node8&#45;&gt;Node9 -->
<g id="edge2" class="edge">
<title>Node8&#45;&gt;Node9</title>
<path fill="none" stroke="#191970" d="M221.2258,-308.1984C235.6439,-305.857 252.2491,-303.1604 266.677,-300.8174"/>
<polygon fill="#191970" stroke="#191970" points="220.4858,-304.7726 211.1761,-309.8304 221.6079,-311.6821 220.4858,-304.7726"/>
</g>
</g>
</svg>
