<?xml version="1.0" encoding="UTF-8" standalone="no"?>
<!DOCTYPE svg PUBLIC "-//W3C//DTD SVG 1.1//EN"
 "http://www.w3.org/Graphics/SVG/1.1/DTD/svg11.dtd">
<!-- Generated by graphviz version 2.40.1 (20161225.0304)
 -->
<!-- Title: po_errormessage Pages: 1 -->
<svg width="202pt" height="66pt"
 viewBox="0.00 0.00 202.00 66.00" xmlns="http://www.w3.org/2000/svg" xmlns:xlink="http://www.w3.org/1999/xlink">
<g id="graph0" class="graph" transform="scale(1 1) rotate(0) translate(4 62)">
<title>po_errormessage</title>
<!-- Node1 -->
<g id="node1" class="node">
<title>Node1</title>
<polygon fill="#bfbfbf" stroke="#000000" points="0,-19.5 0,-38.5 93,-38.5 93,-19.5 0,-19.5"/>
<text text-anchor="middle" x="46.5" y="-26.5" font-family="Avenir" font-size="10.00" fill="#000000">po_errormessage</text>
</g>
<!-- Node2 -->
<g id="node2" class="node">
<title>Node2</title>
<g id="a_node2"><a xlink:href="po__pack_8c.xhtml#afcacfc38f21f677e4794748637a3e1d5" target="_top" xlink:title="Pack a struct po_map into a shared memory segment. ">
<polygon fill="none" stroke="#000000" points="134.5,-38.5 134.5,-57.5 188.5,-57.5 188.5,-38.5 134.5,-38.5"/>
<text text-anchor="middle" x="161.5" y="-45.5" font-family="Avenir" font-size="10.00" fill="#000000">po_pack</text>
</a>
</g>
</g>
<!-- Node1&#45;&gt;Node2 -->
<g id="edge1" class="edge">
<title>Node1&#45;&gt;Node2</title>
<path fill="none" stroke="#191970" d="M103.1683,-38.3626C114.0012,-40.1524 124.8734,-41.9487 134.2466,-43.4973"/>
<polygon fill="#191970" stroke="#191970" points="103.7117,-34.905 93.2749,-36.728 102.5706,-41.8114 103.7117,-34.905"/>
</g>
<!-- Node3 -->
<g id="node3" class="node">
<title>Node3</title>
<g id="a_node3"><a xlink:href="po__pack_8c.xhtml#af11d69efff09c02fc3f3b7bfdeccaa1b" target="_top" xlink:title="Unpack a struct po_map from a file. ">
<polygon fill="none" stroke="#000000" points="129,-.5 129,-19.5 194,-19.5 194,-.5 129,-.5"/>
<text text-anchor="middle" x="161.5" y="-7.5" font-family="Avenir" font-size="10.00" fill="#000000">po_unpack</text>
</a>
</g>
</g>
<!-- Node1&#45;&gt;Node3 -->
<g id="edge2" class="edge">
<title>Node1&#45;&gt;Node3</title>
<path fill="none" stroke="#191970" d="M103.1683,-19.6374C111.9799,-18.1816 120.8175,-16.7215 128.8532,-15.3938"/>
<polygon fill="#191970" stroke="#191970" points="102.5706,-16.1886 93.2749,-21.272 103.7117,-23.095 102.5706,-16.1886"/>
</g>
</g>
</svg>
